<?xml version="1.0" encoding="UTF-8" standalone="no"?>
<svg
   xmlns:dc="http://purl.org/dc/elements/1.1/"
   xmlns:cc="http://creativecommons.org/ns#"
   xmlns:rdf="http://www.w3.org/1999/02/22-rdf-syntax-ns#"
   xmlns:svg="http://www.w3.org/2000/svg"
   xmlns="http://www.w3.org/2000/svg"
   xmlns:sodipodi="http://sodipodi.sourceforge.net/DTD/sodipodi-0.dtd"
   xmlns:inkscape="http://www.inkscape.org/namespaces/inkscape"
   width="300"
   height="300"
   viewBox="0 0 300 300"
   version="1.1"
   id="svg2216"
   inkscape:version="1.0.1 (3bc2e813f5, 2020-09-07)"
   sodipodi:docname="_MASTER-FRAME-FONT-NEW.svg">
  <defs
     id="defs2210" />
  <sodipodi:namedview
     id="base"
     pagecolor="#ffffff"
     bordercolor="#666666"
     borderopacity="1.0"
     inkscape:pageopacity="0.0"
     inkscape:pageshadow="2"
     inkscape:zoom="0.98994949"
     inkscape:cx="233.17409"
     inkscape:cy="184.99516"
     inkscape:document-units="px"
     inkscape:current-layer="layer1"
     showgrid="false"
     units="px"
     inkscape:window-width="1366"
     inkscape:window-height="705"
     inkscape:window-x="-8"
     inkscape:window-y="-8"
     inkscape:window-maximized="1"
     fit-margin-top="10"
     fit-margin-left="10"
     fit-margin-bottom="10"
     fit-margin-right="10"
     inkscape:showpageshadow="false"
     scale-x="1"
     inkscape:document-rotation="0" />
  <metadata
     id="metadata2213">
    <rdf:RDF>
      <cc:Work
         rdf:about="">
        <dc:format>image/svg+xml</dc:format>
        <dc:type
           rdf:resource="http://purl.org/dc/dcmitype/StillImage" />
        <dc:title />
      </cc:Work>
    </rdf:RDF>
  </metadata>
  <g
     inkscape:label="Layer 1"
     inkscape:groupmode="layer"
     id="layer1"
     transform="translate(0,0)">
    
<g
       aria-label="c"
       style="font-style:normal;font-variant:normal;font-weight:normal;font-stretch:normal;font-size:5.33333px;line-height:1.25;font-family:'Open Sans';-inkscape-font-specification:'Open Sans, Normal';font-variant-ligatures:normal;font-variant-caps:normal;font-variant-numeric:normal;font-feature-settings:normal;text-align:start;letter-spacing:0px;word-spacing:0px;writing-mode:lr-tb;text-anchor:start;fill:#0000ff;fill-opacity:1;stroke:none"
       id="text824"
       transform="translate(233.737,-148.85033)">
      <path
         d="m -125.76082,255.93247 c 5.92448,1.26953 17.02008,1.13297 29.715393,-1.12398 -0.375121,-30.32769 0.635031,-64.90468 0.36086,-94.80919 -39.505853,2.89027 -77.415833,29.88926 -95.897893,51.83401 -17.63237,22.85156 -28.19358,47.69616 -30.16841,76.04903 -2.39801,36.67535 9.07722,67.41273 26.56854,94.35501 15.65755,24.12109 57.42343,52.95247 98.511903,55.95843 1.269533,-36.11111 0.108819,-64.9022 -1.160714,-89.58753 -9.874129,-1.55165 -19.748259,-1.55165 -29.622389,0 -0.42318,2.53907 -0.28212,8.46355 0.42318,17.77344 0.56423,7.19401 -1.49907,20.13378 -3.33287,22.39072 -24.52009,-3.75776 -56.68713,-39.45886 -60.07255,-61.74619 -5.07813,-32.58463 -1.91779,-59.36787 11.62388,-83.20685 5.78342,-10.15625 26.12572,-32.58054 52.8485,-37.34648 0.98741,2.11588 -0.92591,25.55007 -1.49014,33.59044 -0.42318,7.89931 0.14106,13.18902 1.69271,15.86914 z"
         style="font-style:normal;font-variant:normal;font-weight:normal;font-stretch:normal;font-size:433.333px;font-family:'SunCatcherStudioFont left';-inkscape-font-specification:'SunCatcherStudioFont left';fill:#010101;fill-opacity:1"
         id="path825"
         inkscape:connector-curvature="0"
         sodipodi:nodetypes="cccccccccccccccc" />
    </g>



<g
       aria-label="s"
       style="font-style:normal;font-variant:normal;font-weight:normal;font-stretch:normal;font-size:5.33333px;line-height:1.25;font-family:'Open Sans';-inkscape-font-specification:'Open Sans, Normal';font-variant-ligatures:normal;font-variant-caps:normal;font-variant-numeric:normal;font-feature-settings:normal;text-align:start;letter-spacing:0px;word-spacing:0px;writing-mode:lr-tb;text-anchor:start;fill:#010101;fill-opacity:1;stroke:none"
       id="text828"
       transform="translate(250.50168,-148.87588)">
      <path
         d="m 37.212948,284.80624 c -3.244358,-0.14106 -16.613075,0.18204 -33.5401584,0.46413 -12.4131951,0.14106 -53.2221916,-0.49371 -59.5698476,-1.9043 0.552057,-27.99266 -1.72498,-54.73233 1.48112,-79.41373 25.407458,8.66819 40.769662,21.62551 52.3758368,48.94498 10.3200487,-0.32759 21.9323682,1.31391 31.8065002,-0.37881 -12.711212,-42.57024 -59.844111,-86.76137 -116.674814,-91.6622 -1.41059,51.34549 -0.02163,102.62044 1.38896,153.82487 2.680122,0.14106 12.413195,0.0705 29.19922,-0.21159 13.259548,-0.28212 54.4211928,0.35265 60.6277902,1.9043 -2.1158855,27.22439 -34.5205952,64.93245 -60.1158732,71.20283 0.139565,-15.52063 -0.333004,-27.92177 -0.935094,-40.94567 -10.156251,-1.55165 -19.748265,-1.55165 -28.776043,0 -1.41059,29.90451 -3.017733,61.14832 -1.607143,91.05283 37.667101,-1.70419 78.7794529,-27.86149 99.051341,-56.77549 17.209202,-26.66015 27.827268,-58.86256 25.288205,-96.10215 z"
         style="font-style:normal;font-variant:normal;font-weight:normal;font-stretch:normal;font-size:433.333px;font-family:'SunCatcherStudioFont right';-inkscape-font-specification:'SunCatcherStudioFont right';fill:#010101;fill-opacity:1"
         id="path822"
         inkscape:connector-curvature="0"
         sodipodi:nodetypes="cccccccccccccccc" />
    </g>



  </g>
</svg>
