<?xml version="1.0" encoding="UTF-8" standalone="no"?>
<svg
   xmlns:dc="http://purl.org/dc/elements/1.1/"
   xmlns:cc="http://creativecommons.org/ns#"
   xmlns:rdf="http://www.w3.org/1999/02/22-rdf-syntax-ns#"
   xmlns:svg="http://www.w3.org/2000/svg"
   xmlns="http://www.w3.org/2000/svg"
   xmlns:sodipodi="http://sodipodi.sourceforge.net/DTD/sodipodi-0.dtd"
   xmlns:inkscape="http://www.inkscape.org/namespaces/inkscape"
   width="300"
   height="300"
   viewBox="0 0 300 300"
   version="1.1"
   id="svg2216"
   inkscape:version="1.0.1 (3bc2e813f5, 2020-09-07)"
   sodipodi:docname="_MASTER-FRAME-FONT-NEW.svg">
  <defs
     id="defs2210" />
  <sodipodi:namedview
     id="base"
     pagecolor="#ffffff"
     bordercolor="#666666"
     borderopacity="1.0"
     inkscape:pageopacity="0.0"
     inkscape:pageshadow="2"
     inkscape:zoom="0.98994949"
     inkscape:cx="233.17409"
     inkscape:cy="184.99516"
     inkscape:document-units="px"
     inkscape:current-layer="layer1"
     showgrid="false"
     units="px"
     inkscape:window-width="1366"
     inkscape:window-height="705"
     inkscape:window-x="-8"
     inkscape:window-y="-8"
     inkscape:window-maximized="1"
     fit-margin-top="10"
     fit-margin-left="10"
     fit-margin-bottom="10"
     fit-margin-right="10"
     inkscape:showpageshadow="false"
     scale-x="1"
     inkscape:document-rotation="0" />
  <metadata
     id="metadata2213">
    <rdf:RDF>
      <cc:Work
         rdf:about="">
        <dc:format>image/svg+xml</dc:format>
        <dc:type
           rdf:resource="http://purl.org/dc/dcmitype/StillImage" />
        <dc:title />
      </cc:Work>
    </rdf:RDF>
  </metadata>
  <g
     inkscape:label="Layer 1"
     inkscape:groupmode="layer"
     id="layer1"
     transform="translate(0,0)">
    
<g
       aria-label="e"
       id="text829"
       style="font-style:normal;font-variant:normal;font-weight:normal;font-stretch:normal;font-size:5.33333px;line-height:1.25;font-family:'Open Sans';-inkscape-font-specification:'Open Sans, Normal';font-variant-ligatures:normal;font-variant-caps:normal;font-variant-numeric:normal;font-feature-settings:normal;text-align:start;letter-spacing:0px;word-spacing:0px;writing-mode:lr-tb;text-anchor:start;fill:#010101;fill-opacity:1;stroke:none"
       transform="translate(250.25062,-147.64285)">
      <path
         id="path16"
         style="font-style:normal;font-variant:normal;font-weight:normal;font-stretch:normal;font-size:400px;font-family:SunCatcherStudioFont;-inkscape-font-specification:SunCatcherStudioFont;fill:#010101;fill-opacity:1"
         d="m 92.962891,22.503906 c -15.54069,5.6016 -43.844258,28.313692 -55.679688,45.607422 -15.625,21.22396 -24.125654,45.843752 -26.208984,72.796872 -0.52083,7.29167 -0.52083,14.38802 0,21.28907 2.21355,26.69271 11.002607,50.32552 26.367187,70.89843 14.0625,18.88021 32.55208,33.65886 55.46875,44.33594 -0.11213,-30.73958 0.0647,-55.29197 0,-83.20312 -8.33333,-1.43229 -16.601557,-1.43229 -24.804687,0 -1.17187,2.60417 -1.562505,7.29167 -1.171875,14.0625 0.26041,6.77083 -0.0651,11.32812 -0.976563,13.67187 -5.20833,-2.08333 -11.067705,-10.09115 -17.578125,-24.02344 -6.64063,-14.0625 -9.570312,-25 -8.789062,-32.8125 1.82291,-1.04167 5.859375,-1.36719 12.109375,-0.97656 6.51042,0.52083 11.002602,0.32552 13.476562,-0.58594 1.04167,-6.64062 1.30208,-15.16926 0.78125,-25.58593 -1.82292,-1.30209 -6.119795,-1.75782 -12.890625,-1.36719 -6.64063,0.39063 -10.872402,-0.13021 -12.695312,-1.5625 0.13021,-8.72396 3.059892,-19.20573 8.789062,-31.44531 6.25,-13.411464 12.044273,-20.898442 17.382813,-22.460942 0.26042,1.5625 0.26042,5.794273 0,12.695313 -0.26041,6.249999 0,10.742189 0.78125,13.476559 8.33333,1.43229 16.872397,1.74479 26.117187,0.3125 l 0.195313,-43.164059 z"
         transform="translate(-250.25648,147.6782)"
         sodipodi:nodetypes="cccccccccccccccccccccccc" />
    </g>



<g
       aria-label="l"
       id="text829"
       style="font-style:normal;font-variant:normal;font-weight:normal;font-stretch:normal;font-size:5.33333px;line-height:1.25;font-family:'Open Sans';-inkscape-font-specification:'Open Sans, Normal';font-variant-ligatures:normal;font-variant-caps:normal;font-variant-numeric:normal;font-feature-settings:normal;text-align:start;letter-spacing:0px;word-spacing:0px;writing-mode:lr-tb;text-anchor:start;fill:#010101;fill-opacity:1;stroke:none"
       transform="translate(251.02609,-149.1391)">
      <path
         id="path16"
         style="font-style:normal;font-variant:normal;font-weight:normal;font-stretch:normal;font-size:400px;font-family:SunCatcherStudioFont;-inkscape-font-specification:SunCatcherStudioFont;fill:#010101;fill-opacity:1"
         d="m 136.47656,11.076172 c -10.54687,0.23839 -21.32031,3.69461 -27.57031,5.24414 -0.65104,15.49543 -0.099,36.667192 0.0312,61.638672 0.13021,33.374756 0.13021,53.756356 0,61.146486 10.15625,2.26472 23.95834,3.39648 41.40625,3.39648 17.05729,0 31.11979,-1.04298 42.1875,-3.1289 -1.57812,-10.07203 0.91146,-25.95484 -0.78125,-47.648441 -9.11458,-0.71517 -17.70833,-0.71517 -25.78125,0 -0.78125,3.99306 -1.04167,10.369991 -0.78125,19.130861 0.26042,8.76088 0,5.10951 -0.78125,9.04297 -12.89063,0.77477 -22.00521,0.68404 -27.34375,-0.26953 -0.78125,-11.38317 -0.97656,-20.663257 -0.58594,-47.839848 0.39063,-25.090679 1.43229,-47.66098 0,-60.71289 z"
         transform="translate(-250.96359,149.09241)"
         sodipodi:nodetypes="ccccscccsccccc" />
    </g>



<g
       aria-label="e"
       id="text829"
       style="font-style:normal;font-variant:normal;font-weight:normal;font-stretch:normal;font-size:5.33333px;line-height:1.25;font-family:'Open Sans';-inkscape-font-specification:'Open Sans, Normal';font-variant-ligatures:normal;font-variant-caps:normal;font-variant-numeric:normal;font-feature-settings:normal;text-align:start;letter-spacing:0px;word-spacing:0px;writing-mode:lr-tb;text-anchor:start;fill:#010101;fill-opacity:1;stroke:none"
       transform="translate(250.25062,-147.64285)">
      <path
         id="path16"
         style="font-style:normal;font-variant:normal;font-weight:normal;font-stretch:normal;font-size:400px;font-family:SunCatcherStudioFont;-inkscape-font-specification:SunCatcherStudioFont;fill:#010101;fill-opacity:1"
         d="m 150.5332,158.23633 c -17.57813,-0.12363 -32.24545,0.7911 -41.88086,3.44922 -1.30209,42.03547 -0.94857,79.68199 0.35352,121.77929 11.28156,3.26871 27.36198,6.28643 43.11719,6.22461 15.75521,-0.0618 28.81315,-3.91052 39.88086,-5.88867 l -0.17579,-36.2168 c -13.54167,-0.55635 -23.39127,-0.68018 -27.42773,-0.37109 -0.78125,3.33811 -0.97656,6.99438 -0.58594,14.96875 0.39063,7.60348 0.13021,4.70447 -0.78125,7.30078 -4.29687,0.55635 -9.17968,0.83399 -14.64843,0.83399 -6.38021,-0.0618 -10.74219,-0.55712 -13.08594,-1.48438 v -14.90234 c 0,-12.42519 0.71615,-17.81307 2.14844,-20.16211 1.82292,-0.18545 5.85937,-0.27735 12.10937,-0.27735 6.25,-0.0618 10.74219,-0.21563 13.47656,-0.46289 1.5625,-6.11987 1.30209,-18.29412 -0.78125,-20.51953 -2.47396,-0.30908 -7.09634,-0.40098 -13.86718,-0.27734 -6.51041,0.12363 -10.61198,-1.9e-4 -12.30469,-0.37109 -1.30208,-15.14515 -1.30208,-16.29041 0,-31.43555 3.90625,-0.80362 8.98437,-1.1751 15.23437,-1.11328 7.03125,0 11.65365,0.61914 13.86719,1.85547 -1.43229,10.50887 -1.43229,10.89465 0,21.15625 8.98438,0.67998 18.39583,1.03349 26.46875,0.35351 0.65104,-5.19262 0.55794,-10.88606 0.42773,-19.66406 -0.1302,-11.68339 -0.6595,-18.43817 -0.52929,-20.97266 -10.54688,-2.41086 -24.21875,-3.67909 -41.01563,-3.80273 z"
         transform="translate(-250.25648,147.6782)"
         sodipodi:nodetypes="cccscccccccscccccccccccccc" />
    </g>



<g
       aria-label="c"
       id="text829"
       style="font-style:normal;font-variant:normal;font-weight:normal;font-stretch:normal;font-size:5.33333px;line-height:1.25;font-family:'Open Sans';-inkscape-font-specification:'Open Sans, Normal';font-variant-ligatures:normal;font-variant-caps:normal;font-variant-numeric:normal;font-feature-settings:normal;text-align:start;letter-spacing:0px;word-spacing:0px;writing-mode:lr-tb;text-anchor:start;fill:#010101;fill-opacity:1;stroke:none"
       transform="translate(250.68957,-148.6377)">
      <path
         id="path16"
         style="font-style:normal;font-variant:normal;font-weight:normal;font-stretch:normal;font-size:400px;font-family:SunCatcherStudioFont;-inkscape-font-specification:SunCatcherStudioFont;fill:#010101;fill-opacity:1"
         d="m 208.05469,22.681641 -0.0625,254.593749 c 36.9545,-16.72496 60.06706,-46.06186 74.69726,-83.19727 -9.22865,-1.42979 -17.99499,-1.47541 -27.35156,-0.0508 -0.28726,0.71799 -3.09043,6.22856 -8.44727,16.60743 -3.38541,6.64063 -7.22656,10.41666 -11.52343,11.32812 -0.52084,-14.58333 -0.78125,-56.57551 -0.78125,-125.976562 0,-0.78125 -0.0651,-2.213545 -0.19532,-4.296875 -0.1302,-1.82292 -0.19531,-3.255205 -0.19531,-4.296875 0.13021,-3.38541 0.97656,-5.924477 2.53907,-7.617187 3.38541,2.47395 6.83593,6.966142 10.35156,13.476562 3.90625,7.421867 6.90104,12.239587 8.98437,14.453127 13.28125,1.69271 22.26823,1.74739 27.08594,-0.33594 C 268.54167,67.514971 244.11198,39.676431 208.05469,22.681641 Z m 47.2832,171.345699 c 0.0479,-0.11971 0.0442,-0.143 -0.0488,0.006 0.0164,-0.002 0.0325,-0.003 0.0488,-0.006 z"
         transform="translate(-250.96359,149.09241)"
         sodipodi:nodetypes="ccccccscccccccccc" />
    </g>



  </g>
</svg>
