<?xml version="1.0" standalone="no"?>
<!DOCTYPE svg PUBLIC "-//W3C//DTD SVG 20010904//EN"
 "http://www.w3.org/TR/2001/REC-SVG-20010904/DTD/svg10.dtd">
<svg version="1.0" xmlns="http://www.w3.org/2000/svg"
 width="294.000000pt" height="294.000000pt" viewBox="0 0 294.000000 294.000000"
 preserveAspectRatio="xMidYMid meet">

<g transform="translate(0.000000,294.000000) scale(0.100000,-0.100000)"
fill="#000000" stroke="none">
<path d="M2210 2203 c-8 -3 -26 -10 -39 -15 -13 -5 -22 -11 -19 -13 3 -3 24 2
48 10 54 19 110 20 110 1 0 -30 -87 -141 -215 -273 l-134 -138 -1 48 0 48 -87
-3 -88 -3 -2 -55 c-2 -43 2 -60 18 -79 19 -23 24 -24 60 -14 29 8 39 7 36 -1
-2 -6 -27 -12 -57 -14 -44 -3 -52 -1 -47 12 4 9 2 16 -4 16 -6 0 -9 -8 -7 -17
2 -12 15 -20 41 -23 l38 -5 -63 -60 c-106 -102 -167 -155 -178 -155 -6 0 -10
28 -10 70 0 71 10 86 38 58 14 -14 19 -10 24 17 3 19 -4 20 -102 25 -127 6
-290 -2 -272 -13 19 -12 15 -64 -5 -72 -17 -6 -17 -7 0 -19 9 -7 17 -21 17
-30 0 -20 -28 0 -134 97 l-60 53 22 22 c28 28 28 56 1 83 -14 14 -19 28 -15
45 6 21 3 24 -22 24 -26 0 -28 -3 -24 -28 2 -18 -2 -33 -12 -41 -14 -12 -16
-8 -16 38 0 48 -1 51 -25 49 -22 -2 -25 -7 -24 -38 2 -29 3 -30 6 -8 2 14 11
29 19 32 11 4 14 -4 14 -32 0 -20 3 -48 6 -62 4 -18 -28 9 -115 97 -124 126
-221 245 -242 298 -6 18 -13 25 -16 17 -10 -26 96 -166 245 -323 60 -63 78
-89 71 -100 -5 -8 -9 -27 -9 -42 0 -28 1 -28 54 -26 l54 2 103 -92 c57 -50
104 -99 104 -109 0 -11 9 -18 25 -20 14 -2 29 -8 35 -13 12 -12 -110 -12 -353
2 -188 10 -338 25 -279 28 l28 1 -3 93 c-3 90 -4 92 -28 94 l-25 2 25 -8 c18
-7 4 -9 -50 -9 -54 0 -68 2 -50 9 l25 8 -25 -2 c-24 -2 -25 -4 -28 -91 l-3
-89 -58 6 c-32 4 -65 9 -74 13 -9 3 -17 2 -17 -3 0 -15 94 -29 400 -57 30 -3
88 -6 128 -6 60 0 74 -3 79 -17 4 -10 12 -22 20 -26 17 -11 18 -90 1 -85 -7 3
-14 21 -16 42 -3 31 -7 37 -24 34 -12 -2 -22 -11 -24 -21 -2 -13 2 -16 17 -12
15 5 19 1 19 -14 0 -12 5 -30 12 -41 7 -10 9 -22 5 -26 -9 -9 -37 15 -37 32 0
8 -5 14 -11 14 -11 0 -4 -15 19 -42 21 -25 67 -23 86 4 9 12 16 42 16 65 0 39
-2 43 -25 43 -15 0 -25 6 -25 14 0 8 -6 17 -12 19 -7 3 60 6 149 6 l161 0 46
-36 c25 -20 46 -37 46 -38 0 -1 -73 -61 -162 -132 -179 -142 -292 -223 -381
-273 -32 -18 -56 -35 -53 -38 14 -14 289 174 473 324 56 46 110 88 121 95 15
10 33 0 127 -72 139 -106 367 -260 374 -253 3 3 -3 10 -14 17 -52 29 -280 189
-367 257 l-96 76 44 36 44 36 137 1 c383 3 827 50 928 97 25 12 26 13 5 9
-144 -33 -226 -46 -354 -59 -183 -19 -474 -36 -603 -36 l-96 0 24 23 c13 13
79 74 147 135 108 99 127 112 158 112 34 0 36 2 31 27 -4 24 9 42 115 152 189
195 264 297 243 330 -6 11 -79 14 -105 4z m-370 -357 c0 -2 -7 -9 -15 -16 -12
-10 -15 -10 -15 4 0 9 7 16 15 16 8 0 15 -2 15 -4z m30 -11 c-15 -18 -7 -19
19 -3 26 16 53 3 49 -24 -2 -13 -10 -24 -18 -24 -33 -3 -34 -7 -5 -14 23 -6
15 -8 -37 -9 -42 -1 -68 3 -68 10 0 6 8 8 19 4 12 -3 21 0 25 10 3 9 18 15 37
15 18 0 29 3 25 7 -4 4 -25 6 -47 4 -38 -2 -40 -2 -27 18 7 12 19 21 27 21 11
0 11 -3 1 -15z m-760 -39 c0 -13 7 -30 17 -37 15 -13 12 -15 -23 -20 l-39 -6
38 -2 c39 -1 49 -19 22 -41 -20 -16 -43 -6 -57 25 -9 20 -8 28 5 43 10 10 17
28 17 40 0 12 5 22 10 22 6 0 10 -11 10 -24z m-90 -77 c0 -5 -7 -9 -15 -9 -9
0 -12 6 -9 15 6 15 24 11 24 -6z m930 -10 c0 -5 -10 -9 -21 -9 -18 0 -19 2 -9
15 12 15 30 12 30 -6z m-900 -20 c0 -5 -11 -9 -25 -9 -26 0 -34 15 -12 23 16
5 37 -3 37 -14z m-340 -89 c0 -16 -7 -20 -37 -22 -32 -1 -29 -2 17 -8 47 -6
49 -7 17 -8 -23 -1 -36 -6 -32 -12 4 -6 -10 -10 -34 -10 -30 0 -41 4 -41 15 0
8 8 15 18 16 10 0 12 3 5 6 -7 2 -13 13 -13 24 0 16 7 19 50 19 43 0 50 -3 50
-20z m17 -12 c-3 -7 -5 -2 -5 12 0 14 2 19 5 13 2 -7 2 -19 0 -25z m657 26
c22 -8 20 -27 -4 -42 -17 -10 -21 -10 -26 3 -6 15 1 45 10 45 2 0 11 -3 20 -6z
m115 -10 c17 -12 26 -13 34 -5 27 27 37 12 37 -59 0 -40 -4 -70 -10 -70 -18 0
-10 -22 10 -27 46 -12 2 -23 -90 -23 l-100 0 -15 36 c-26 63 -16 96 24 75 12
-7 21 -7 23 -1 2 6 21 4 48 -4 33 -10 45 -18 45 -32 0 -28 -39 -30 -64 -3 -21
22 -21 22 -36 3 -22 -29 -13 -38 43 -48 67 -11 102 8 102 58 0 34 -10 43 -72
66 -27 9 -36 29 -21 43 10 10 16 9 42 -9z m-766 -104 c-7 -28 -13 -25 -13 6 0
14 4 23 9 20 5 -3 7 -15 4 -26z m-115 -15 c-3 -3 -9 2 -12 12 -6 14 -5 15 5 6
7 -7 10 -15 7 -18z m904 -105 c-18 -17 -37 -30 -42 -30 -5 0 -24 13 -42 30
l-33 29 75 0 75 0 -33 -29z m-405 -26 c-3 -3 -12 -4 -19 -1 -8 3 -5 6 6 6 11
1 17 -2 13 -5z m3 -42 c0 -16 -9 -37 -20 -47 -24 -22 -39 -12 -22 15 7 11 12
29 12 40 0 11 7 20 15 20 10 0 15 -10 15 -28z"/>
<path d="M1865 1780 c3 -5 8 -10 11 -10 2 0 4 5 4 10 0 6 -5 10 -11 10 -5 0
-7 -4 -4 -10z"/>
<path d="M767 2176 c65 -24 175 -85 256 -142 26 -19 50 -34 53 -34 33 0 -200
146 -287 180 -27 11 -57 20 -67 19 -9 0 11 -10 45 -23z"/>
<path d="M2005 2104 c-87 -53 -147 -95 -142 -101 3 -2 27 11 54 30 26 19 74
49 106 67 31 17 57 34 57 36 0 10 -19 2 -75 -32z"/>
<path d="M1425 2060 c-10 -11 -26 -20 -36 -20 -22 0 -41 -31 -29 -50 6 -10 9
-7 12 11 2 17 10 25 29 27 17 2 29 11 32 23 7 25 65 27 74 2 3 -10 15 -25 26
-34 14 -12 18 -22 12 -35 -5 -13 -9 -15 -12 -6 -5 14 -53 17 -53 3 0 -5 10 -7
21 -4 16 4 20 2 17 -8 -3 -9 -27 -16 -69 -20 l-64 -6 66 -1 c57 -2 68 1 87 21
29 31 28 43 -10 83 -37 39 -75 44 -103 14z"/>
<path d="M1423 2013 c-22 -8 -14 -21 8 -16 16 4 20 2 17 -8 -3 -8 -18 -14 -36
-14 -18 0 -32 -3 -32 -7 0 -14 67 -8 80 7 10 12 10 18 0 30 -13 16 -17 17 -37
8z"/>
<path d="M1646 1854 c-22 -21 -20 -27 4 -14 11 6 20 15 20 20 0 14 -6 12 -24
-6z"/>
<path d="M1290 1852 c0 -12 19 -26 26 -19 2 2 -2 10 -11 17 -9 8 -15 8 -15 2z"/>
<path d="M1375 1780 c3 -5 11 -10 16 -10 6 0 7 5 4 10 -3 6 -11 10 -16 10 -6
0 -7 -4 -4 -10z"/>
<path d="M1555 1780 c-3 -5 -2 -10 4 -10 5 0 13 5 16 10 3 6 2 10 -4 10 -5 0
-13 -4 -16 -10z"/>
<path d="M1280 1690 c0 -5 5 -10 10 -10 6 0 10 5 10 10 0 6 -4 10 -10 10 -5 0
-10 -4 -10 -10z"/>
<path d="M1655 1690 c3 -5 8 -10 11 -10 2 0 4 5 4 10 0 6 -5 10 -11 10 -5 0
-7 -4 -4 -10z"/>
<path d="M860 1669 c0 -5 5 -7 10 -4 6 3 10 8 10 11 0 2 -4 4 -10 4 -5 0 -10
-5 -10 -11z"/>
<path d="M2495 1630 c3 -5 24 -11 48 -15 23 -4 64 -16 91 -26 58 -22 77 -17
22 6 -45 19 -167 45 -161 35z"/>
<path d="M370 1614 c-61 -16 -105 -44 -105 -65 0 -15 92 -65 101 -56 3 3 -15
14 -40 26 -25 11 -46 27 -46 35 0 14 92 55 128 57 9 0 26 4 37 9 l20 9 -20 0
c-11 0 -45 -7 -75 -15z"/>
<path d="M2200 1610 c-32 -32 -13 -65 38 -63 6 1 12 -5 12 -13 0 -8 5 -14 11
-14 5 0 7 -5 4 -10 -10 -16 42 -31 71 -20 14 6 23 14 20 19 -4 5 0 11 6 14 10
3 10 7 1 19 -7 8 -10 18 -7 21 10 10 -42 26 -64 20 -14 -3 -22 1 -26 15 -9 28
-44 34 -66 12z m54 -15 c3 -8 -2 -21 -10 -29 -8 -8 -21 -13 -29 -10 -21 8 -26
32 -9 48 16 17 40 12 48 -9z m70 -21 c9 -3 16 -12 16 -20 0 -8 6 -14 13 -15
10 0 10 -2 0 -6 -7 -2 -13 -11 -13 -18 0 -18 -26 -26 -52 -15 -13 5 -19 9 -14
9 5 1 3 8 -4 16 -10 12 -10 15 0 15 7 0 10 6 7 14 -4 9 1 17 11 19 9 3 18 5
19 6 1 0 8 -2 17 -5z"/>
<path d="M2210 1586 c0 -8 4 -17 9 -20 11 -7 33 18 24 27 -12 12 -33 7 -33 -7z"/>
<path d="M2291 1546 c-9 -10 -8 -16 4 -26 19 -16 41 1 32 24 -8 20 -21 20 -36
2z m29 -11 c0 -8 -4 -15 -9 -15 -13 0 -22 16 -14 24 11 11 23 6 23 -9z"/>
<path d="M1710 1500 c0 -5 5 -10 11 -10 5 0 7 5 4 10 -3 6 -8 10 -11 10 -2 0
-4 -4 -4 -10z"/>
<path d="M1842 1383 c-4 -10 -16 -18 -27 -18 -16 0 -20 -7 -22 -40 -1 -22 1
-48 3 -57 6 -21 30 -24 37 -5 4 10 6 10 6 0 1 -7 12 -13 26 -13 14 0 25 -4 25
-10 0 -5 17 -9 38 -8 36 1 36 1 5 5 -18 2 -33 8 -33 14 0 5 -11 9 -24 9 -13 0
-26 7 -30 15 -3 9 0 15 9 15 8 0 15 -4 15 -10 0 -15 34 -12 66 5 27 14 27 15
7 15 -13 0 -23 -4 -23 -10 0 -5 -9 -10 -20 -10 -11 0 -20 4 -20 9 0 5 -12 12
-27 14 -16 2 4 5 42 7 l70 4 -70 6 -70 6 70 4 c62 2 66 4 30 10 -31 5 -36 8
-22 14 26 12 21 36 -8 36 -14 0 -25 -4 -25 -10 0 -5 -4 -10 -10 -10 -5 0 -7 7
-4 15 9 21 -5 19 -14 -2z m68 -7 c0 -2 -7 -6 -15 -10 -8 -3 -15 -1 -15 4 0 6
7 10 15 10 8 0 15 -2 15 -4z m-93 -93 c-2 -16 -4 -3 -4 27 0 30 2 43 4 28 2
-16 2 -40 0 -55z m46 60 c-7 -2 -19 -2 -25 0 -7 3 -2 5 12 5 14 0 19 -2 13 -5z"/>
<path d="M2097 1113 c98 -115 141 -196 113 -213 -15 -9 -71 5 -123 32 -22 11
-41 17 -44 14 -7 -6 63 -41 114 -56 74 -22 94 18 48 98 -29 51 -135 182 -148
182 -5 0 13 -26 40 -57z"/>
<path d="M1442 1144 c-25 -17 -28 -50 -7 -78 17 -23 20 -56 4 -56 -5 0 -7 5
-3 12 4 7 3 8 -4 4 -24 -15 -10 -26 32 -26 49 0 67 13 39 28 -16 9 -16 13 -3
37 8 15 20 30 27 32 8 3 1 15 -18 34 -34 34 -37 34 -67 13z m54 -35 c1 -13 -4
-33 -12 -43 -13 -19 -14 -19 -34 -1 -19 17 -27 55 -14 68 3 3 17 4 31 3 19 -2
27 -9 29 -27z"/>
<path d="M874 1075 c-38 -61 -68 -135 -54 -135 4 0 11 14 15 31 4 16 26 59 50
95 24 35 39 64 34 64 -5 0 -25 -25 -45 -55z"/>
<path d="M512 967 c-25 -25 -29 -36 -20 -45 9 -9 15 -7 25 6 11 12 16 14 19 5
8 -18 21 -16 28 3 3 8 2 12 -3 9 -5 -3 -12 -1 -15 4 -4 5 -2 13 4 16 15 9 41
-14 33 -29 -4 -7 -1 -7 7 1 11 10 11 15 0 28 -29 35 -46 36 -78 2z"/>
<path d="M2437 984 c-4 -4 -1 -14 5 -22 10 -11 9 -13 -8 -11 -23 4 -94 -47
-94 -68 0 -7 7 -16 15 -19 8 -3 17 -14 20 -25 8 -24 17 -24 46 -1 15 13 20 25
16 37 -7 16 -8 16 -35 -1 -22 -15 -25 -15 -14 -1 8 9 11 25 7 37 -7 23 8 26
49 10 29 -11 29 -9 12 38 -6 18 -15 30 -19 26z m-57 -95 c0 -5 -4 -9 -10 -9
-5 0 -10 7 -10 16 0 8 5 12 10 9 6 -3 10 -10 10 -16z m50 -33 c0 -2 -7 -7 -16
-10 -8 -3 -12 -2 -9 4 6 10 25 14 25 6z"/>
<path d="M573 895 c-18 -19 -16 -29 7 -50 20 -18 21 -18 35 1 18 23 19 36 3
52 -16 16 -30 15 -45 -3z m37 -5 c0 -5 -5 -10 -11 -10 -5 0 -7 5 -4 10 3 6 8
10 11 10 2 0 4 -4 4 -10z"/>
<path d="M2455 890 c-3 -5 -1 -10 4 -10 6 0 11 5 11 10 0 6 -2 10 -4 10 -3 0
-8 -4 -11 -10z"/>
<path d="M2291 856 c-19 -23 -4 -56 25 -56 28 0 42 25 27 49 -14 22 -37 25
-52 7z m39 -33 c0 -13 -3 -13 -15 -3 -8 7 -15 19 -15 27 0 13 3 13 15 3 8 -7
15 -19 15 -27z"/>
<path d="M636 844 c-19 -19 -5 -54 22 -54 14 0 14 2 3 9 -9 6 -11 16 -6 27 5
13 9 15 12 7 6 -17 23 -16 23 1 0 8 -7 17 -16 20 -21 8 -20 8 -38 -10z"/>
<path d="M2227 844 c-3 -3 6 -24 20 -45 16 -25 30 -36 35 -31 6 6 1 24 -14 46
-23 36 -30 41 -41 30z"/>
<path d="M695 798 c-15 -22 -14 -24 12 -45 l27 -22 17 27 c22 36 6 52 -21 21
-21 -23 -22 -18 -4 26 9 23 -13 18 -31 -7z"/>
<path d="M777 761 c-23 -35 -26 -51 -7 -51 12 0 51 78 41 84 -5 3 -20 -12 -34
-33z"/>
<path d="M2197 789 c-22 -13 -22 -48 -1 -56 20 -8 48 8 52 30 4 21 -29 38 -51
26z m27 -25 c9 -22 -3 -32 -14 -14 -12 19 -12 30 -1 30 5 0 12 -7 15 -16z"/>
<path d="M812 735 c-16 -34 -15 -42 4 -49 11 -4 15 -2 11 8 -5 14 10 36 25 36
4 0 8 -19 8 -41 0 -36 -2 -40 -15 -29 -12 10 -15 10 -15 -4 0 -9 5 -16 11 -16
15 0 79 50 79 62 0 6 -7 5 -15 -2 -12 -10 -15 -10 -15 0 0 14 -46 60 -59 60
-4 0 -13 -11 -19 -25z"/>
<path d="M2125 747 c-11 -7 -21 -12 -23 -13 -1 -1 4 -15 11 -32 9 -23 16 -29
27 -22 11 7 11 11 1 24 -7 8 -11 21 -8 28 3 8 9 2 17 -14 7 -15 17 -25 21 -22
13 8 11 20 -8 42 -15 17 -21 19 -38 9z"/>
<path d="M2015 721 c-8 -14 26 -81 42 -81 17 0 17 -1 -7 48 -22 44 -25 48 -35
33z"/>
<path d="M2058 714 c-9 -16 27 -64 41 -55 9 6 7 15 -12 36 -13 16 -26 24 -29
19z"/>
<path d="M972 671 c-8 -4 -12 -19 -10 -32 2 -18 9 -24 28 -24 19 0 26 6 28 24
3 20 -11 41 -28 41 -3 0 -11 -4 -18 -9z m19 -44 c-8 -8 -11 -5 -11 9 0 27 14
41 18 19 2 -9 -1 -22 -7 -28z"/>
<path d="M1059 666 c-22 -15 -33 -76 -15 -76 13 0 32 44 27 64 -1 5 5 6 14 3
8 -4 15 -2 15 2 0 15 -25 19 -41 7z"/>
<path d="M1967 673 c-23 -22 7 -68 37 -57 21 8 21 22 -1 20 -10 0 -19 7 -21
16 -2 13 1 16 12 12 9 -3 16 -1 16 5 0 12 -32 15 -43 4z"/>
<path d="M1860 666 c0 -2 7 -7 16 -10 8 -3 12 -2 9 4 -6 10 -25 14 -25 6z"/>
<path d="M1834 615 c8 -32 15 -45 28 -45 10 0 18 1 18 3 -1 22 -32 83 -42 85
-12 2 -13 -5 -4 -43z"/>
<path d="M1900 645 c-26 -32 18 -71 47 -42 15 15 15 16 -4 11 -13 -4 -22 0
-27 12 -8 22 2 33 14 14 5 -8 12 -11 15 -8 10 9 -4 28 -19 28 -8 0 -19 -7 -26
-15z"/>
<path d="M1133 634 c-3 -8 3 -25 14 -37 11 -12 18 -28 16 -35 -3 -8 1 -10 11
-6 22 8 20 37 -4 59 -11 10 -17 22 -14 26 3 5 0 9 -6 9 -6 0 -13 -7 -17 -16z"/>
<path d="M1170 646 c0 -2 7 -9 15 -16 9 -7 15 -8 15 -2 0 5 -7 12 -15 16 -8 3
-15 4 -15 2z"/>
<path d="M1285 620 c-3 -5 1 -10 10 -10 9 0 13 5 10 10 -3 6 -8 10 -10 10 -2
0 -7 -4 -10 -10z"/>
<path d="M1674 613 c-3 -10 -10 -28 -16 -40 -16 -33 -2 -45 46 -38 40 7 74 25
47 25 -8 0 -11 7 -8 20 3 11 1 20 -4 20 -5 0 -9 -7 -9 -17 0 -9 -3 -13 -7 -9
-5 4 -8 17 -8 29 0 27 -33 35 -41 10z m22 -60 c-7 -7 -26 7 -26 19 0 6 6 6 15
-2 9 -7 13 -15 11 -17z"/>
<path d="M1209 594 c-16 -19 -1 -47 27 -52 15 -3 17 -1 7 9 -7 7 -13 22 -13
34 0 16 2 17 10 5 5 -8 12 -11 15 -8 10 9 -4 28 -19 28 -8 0 -19 -7 -27 -16z"/>
<path d="M1280 581 c0 -11 -3 -26 -6 -35 -4 -11 -1 -16 10 -16 12 0 16 10 16
35 0 19 -4 35 -10 35 -5 0 -10 -9 -10 -19z"/>
<path d="M1116 581 c-3 -5 1 -12 10 -15 22 -8 25 -4 9 11 -8 7 -16 9 -19 4z"/>
<path d="M1322 578 c-18 -18 -15 -36 9 -49 15 -8 24 -8 32 0 8 8 6 11 -6 11
-11 0 -17 8 -16 23 0 12 3 16 6 10 2 -7 11 -13 19 -13 8 0 11 6 8 15 -7 18
-35 20 -52 3z"/>
<path d="M1388 554 c-3 -23 0 -34 9 -34 7 0 13 11 13 25 0 14 5 25 11 25 7 0
9 -10 7 -25 -4 -19 -1 -25 12 -25 14 0 16 6 11 31 -5 25 -12 32 -33 35 -23 2
-26 -2 -30 -32z"/>
<path d="M1485 576 c-24 -18 -15 -50 15 -54 22 -2 23 -1 8 8 -26 16 -24 43 2
35 11 -3 20 -2 20 3 0 17 -27 21 -45 8z"/>
<path d="M1552 581 c-19 -12 -11 -55 12 -59 10 -2 23 2 30 9 8 9 7 11 -6 6
-10 -3 -20 -2 -23 3 -3 5 4 12 15 15 17 5 19 10 9 21 -13 16 -19 17 -37 5z
m23 -11 c3 -5 1 -10 -4 -10 -6 0 -11 5 -11 10 0 6 2 10 4 10 3 0 8 -4 11 -10z"/>
</g>
</svg>
