<?xml version="1.0" encoding="UTF-8" standalone="no"?>
<svg
   xmlns:dc="http://purl.org/dc/elements/1.1/"
   xmlns:cc="http://creativecommons.org/ns#"
   xmlns:rdf="http://www.w3.org/1999/02/22-rdf-syntax-ns#"
   xmlns:svg="http://www.w3.org/2000/svg"
   xmlns="http://www.w3.org/2000/svg"
   xmlns:sodipodi="http://sodipodi.sourceforge.net/DTD/sodipodi-0.dtd"
   xmlns:inkscape="http://www.inkscape.org/namespaces/inkscape"
   width="300"
   height="300"
   viewBox="0 0 300 300"
   version="1.1"
   id="svg2216"
   inkscape:version="1.0.1 (3bc2e813f5, 2020-09-07)"
   sodipodi:docname="_MASTER-FRAME-FONT-NEW.svg">
  <defs
     id="defs2210" />
  <sodipodi:namedview
     id="base"
     pagecolor="#ffffff"
     bordercolor="#666666"
     borderopacity="1.0"
     inkscape:pageopacity="0.0"
     inkscape:pageshadow="2"
     inkscape:zoom="0.98994949"
     inkscape:cx="233.17409"
     inkscape:cy="184.99516"
     inkscape:document-units="px"
     inkscape:current-layer="layer1"
     showgrid="false"
     units="px"
     inkscape:window-width="1366"
     inkscape:window-height="705"
     inkscape:window-x="-8"
     inkscape:window-y="-8"
     inkscape:window-maximized="1"
     fit-margin-top="10"
     fit-margin-left="10"
     fit-margin-bottom="10"
     fit-margin-right="10"
     inkscape:showpageshadow="false"
     scale-x="1"
     inkscape:document-rotation="0" />
  <metadata
     id="metadata2213">
    <rdf:RDF>
      <cc:Work
         rdf:about="">
        <dc:format>image/svg+xml</dc:format>
        <dc:type
           rdf:resource="http://purl.org/dc/dcmitype/StillImage" />
        <dc:title />
      </cc:Work>
    </rdf:RDF>
  </metadata>
  <g
     inkscape:label="Layer 1"
     inkscape:groupmode="layer"
     id="layer1"
     transform="translate(0,0)">
    
<g
       aria-label="s"
       id="text829"
       style="font-style:normal;font-variant:normal;font-weight:normal;font-stretch:normal;font-size:5.33333px;line-height:1.25;font-family:'Open Sans';-inkscape-font-specification:'Open Sans, Normal';font-variant-ligatures:normal;font-variant-caps:normal;font-variant-numeric:normal;font-feature-settings:normal;text-align:start;letter-spacing:0px;word-spacing:0px;writing-mode:lr-tb;text-anchor:start;fill:#010101;fill-opacity:1;stroke:none"
       transform="translate(250.83886,-148.87558)">
      <path
         id="path16"
         style="font-style:normal;font-variant:normal;font-weight:normal;font-stretch:normal;font-size:400px;font-family:SunCatcherStudioFont;-inkscape-font-specification:SunCatcherStudioFont;fill:#010101;fill-opacity:1"
         d="M 93.015625,22.228516 C 65.578125,34.806646 45.615884,54.124351 32.464844,74.306641 16.579424,98.525391 8.906245,128.01757 10.859375,162.7832 c 4.81771,0.91146 14.062495,1.17188 27.734375,0.78125 12.5,-0.39063 21.484375,0.13021 26.953125,1.5625 0.39063,2.99479 0.585937,12.36979 0.585937,28.125 0,15.23437 -0.716147,24.08854 -2.148437,26.5625 -4.29687,-1.43229 -8.007813,-5.27343 -11.132813,-11.52343 -3.90625,-8.07291 -6.575522,-12.89063 -8.007812,-14.45313 -8.46355,-1.43229 -17.57813,-1.43229 -27.34375,0 5.78645,16.79167 13.867188,33.46355 29.492188,50.39063 16.145829,17.44792 31.445307,27.5052 45.898437,32.42187 1.30209,-46.22396 1.30209,-92.51302 0,-138.86719 -4.55729,-0.91146 -13.997402,-1.10676 -28.320313,-0.58593 -12.63021,0.39063 -21.419267,-0.39062 -26.367187,-2.34375 0,-10.28646 2.669273,-20.89844 8.007813,-31.83594 6.25,-12.630212 12.695307,-20.312507 19.335937,-23.046877 0.65104,2.60417 0.91146,7.161465 0.78125,13.671875 -0.26041,6.640632 -0.0651,11.197912 0.585937,13.671872 9.375,1.5625 18.294273,1.5625 26.757813,0 z"
         transform="translate(-250.96359,149.09241)"
         sodipodi:nodetypes="cccccsccccccccccccccc" />
    </g>



<g
       aria-label="w"
       id="text829"
       style="font-style:normal;font-variant:normal;font-weight:normal;font-stretch:normal;font-size:5.33333px;line-height:1.25;font-family:'Open Sans';-inkscape-font-specification:'Open Sans, Normal';font-variant-ligatures:normal;font-variant-caps:normal;font-variant-numeric:normal;font-feature-settings:normal;text-align:start;letter-spacing:0px;word-spacing:0px;writing-mode:lr-tb;text-anchor:start;fill:#010101;fill-opacity:1;stroke:none"
       transform="translate(250.6854,-149.06097)">
      <path
         id="path16"
         style="font-style:normal;font-variant:normal;font-weight:normal;font-stretch:normal;font-size:400px;font-family:SunCatcherStudioFont;-inkscape-font-specification:SunCatcherStudioFont;fill:#010101;fill-opacity:1"
         d="m 166.92969,11.304688 c -0.78125,10.93762 -0.91667,30.738803 -0.65625,54.027343 0.26041,23.04275 0,33.818682 -0.78125,44.326169 -3.38542,-1.59762 -6.25,-4.57865 -8.59375,-8.9414 -2.73438,-4.915793 -5.07812,-8.111201 -7.03125,-9.585941 -0.39062,0.36869 -2.34375,3.4104 -5.85938,9.125001 -0.26042,0.36869 -0.71615,1.16754 -1.36719,2.39648 -0.52082,1.04461 -0.97655,1.84347 -1.36718,2.39649 -1.30208,1.78197 -3.125,2.97927 -5.46875,3.59375 -0.91145,-9.524342 -1.17187,-20.328668 -0.78125,-44.416018 0.39063,-22.48972 0.30729,-41.544212 -1.125,-52.789062 -8.33333,0.12288 -17.16928,3.230642 -25.63282,4.951172 V 140.18945 c 7.29168,2.08921 15.95053,3.04175 25.97657,2.85743 0.52083,-0.61449 1.82292,-2.12113 3.90625,-4.51758 1.82292,-2.02776 3.2552,-3.68617 4.29687,-4.97657 0.39063,-0.55302 0.91146,-1.38223 1.5625,-2.48828 0.78125,-1.22895 1.36718,-2.09045 1.75781,-2.58203 1.30209,-1.84342 3.19011,-2.94968 5.66407,-3.31836 2.08333,1.59762 4.6875,4.609 7.8125,9.03321 2.86458,4.17842 5.66407,7.12909 8.39843,8.84961 8.46354,0.18432 16.40625,-0.76822 23.82813,-2.85743 L 192.25,16.632812 c -11.92249,-3.405519 -21.4977,-5.016654 -25.32031,-5.328124 z"
         transform="translate(-250.96359,149.09241)"
         sodipodi:nodetypes="cccccccccccccccccccccccc" />
    </g>



<g
       aria-label="e"
       id="text829"
       style="font-style:normal;font-variant:normal;font-weight:normal;font-stretch:normal;font-size:5.33333px;line-height:1.25;font-family:'Open Sans';-inkscape-font-specification:'Open Sans, Normal';font-variant-ligatures:normal;font-variant-caps:normal;font-variant-numeric:normal;font-feature-settings:normal;text-align:start;letter-spacing:0px;word-spacing:0px;writing-mode:lr-tb;text-anchor:start;fill:#010101;fill-opacity:1;stroke:none"
       transform="translate(250.25062,-147.64285)">
      <path
         id="path16"
         style="font-style:normal;font-variant:normal;font-weight:normal;font-stretch:normal;font-size:400px;font-family:SunCatcherStudioFont;-inkscape-font-specification:SunCatcherStudioFont;fill:#010101;fill-opacity:1"
         d="m 150.5332,158.23633 c -17.57813,-0.12363 -32.24545,0.7911 -41.88086,3.44922 -1.30209,42.03547 -0.94857,79.68199 0.35352,121.77929 11.28156,3.26871 27.36198,6.28643 43.11719,6.22461 15.75521,-0.0618 28.81315,-3.91052 39.88086,-5.88867 l -0.17579,-36.2168 c -13.54167,-0.55635 -23.39127,-0.68018 -27.42773,-0.37109 -0.78125,3.33811 -0.97656,6.99438 -0.58594,14.96875 0.39063,7.60348 0.13021,4.70447 -0.78125,7.30078 -4.29687,0.55635 -9.17968,0.83399 -14.64843,0.83399 -6.38021,-0.0618 -10.74219,-0.55712 -13.08594,-1.48438 v -14.90234 c 0,-12.42519 0.71615,-17.81307 2.14844,-20.16211 1.82292,-0.18545 5.85937,-0.27735 12.10937,-0.27735 6.25,-0.0618 10.74219,-0.21563 13.47656,-0.46289 1.5625,-6.11987 1.30209,-18.29412 -0.78125,-20.51953 -2.47396,-0.30908 -7.09634,-0.40098 -13.86718,-0.27734 -6.51041,0.12363 -10.61198,-1.9e-4 -12.30469,-0.37109 -1.30208,-15.14515 -1.30208,-16.29041 0,-31.43555 3.90625,-0.80362 8.98437,-1.1751 15.23437,-1.11328 7.03125,0 11.65365,0.61914 13.86719,1.85547 -1.43229,10.50887 -1.43229,10.89465 0,21.15625 8.98438,0.67998 18.39583,1.03349 26.46875,0.35351 0.65104,-5.19262 0.55794,-10.88606 0.42773,-19.66406 -0.1302,-11.68339 -0.6595,-18.43817 -0.52929,-20.97266 -10.54688,-2.41086 -24.21875,-3.67909 -41.01563,-3.80273 z"
         transform="translate(-250.25648,147.6782)"
         sodipodi:nodetypes="cccscccccccscccccccccccccc" />
    </g>



<g
       aria-label="n"
       id="text829"
       style="font-style:normal;font-variant:normal;font-weight:normal;font-stretch:normal;font-size:5.33333px;line-height:1.25;font-family:'Open Sans';-inkscape-font-specification:'Open Sans, Normal';font-variant-ligatures:normal;font-variant-caps:normal;font-variant-numeric:normal;font-feature-settings:normal;text-align:start;letter-spacing:0px;word-spacing:0px;writing-mode:lr-tb;text-anchor:start;fill:#010101;fill-opacity:1;stroke:none"
       transform="translate(251.17062,-148.84978)">
      <path
         id="path16"
         style="font-style:normal;font-variant:normal;font-weight:normal;font-stretch:normal;font-size:400px;font-family:SunCatcherStudioFont;-inkscape-font-specification:SunCatcherStudioFont;fill:#010101;fill-opacity:1"
         d="m 207.99219,22.806641 c -0.59498,84.058519 0.64146,169.598989 0.17578,253.880859 16.79687,-7.26409 23.52444,-13.63529 27.78515,-16.63867 v -66.60156 c 0,-11.58854 0.71615,-18.29427 2.14844,-20.11719 2.60417,7.42188 5.66406,18.48958 9.17969,33.20312 3.77604,15.75521 6.70573,26.95312 8.78906,33.59375 5.85938,-3.90625 11.87761,-14.33659 19.82031,-29.70117 6.77084,-13.41146 9.60613,-25.25716 11.68946,-36.06445 5.20833,-27.73437 0.78075,-53.18873 -9.2168,-79.546877 -7.29167,-15.88542 -13.86837,-26.271297 -20.74805,-33.898437 0.52084,5.20833 0.278,14.497397 -0.37304,25.304687 -0.52084,10.15625 -0.45573,17.968747 0.19531,23.437497 0.39062,2.99479 1.6276,9.17969 3.71094,18.55469 1.82291,8.07291 2.79948,14.45313 2.92968,19.14063 0.65105,13.41146 -1.39843,20.96093 -4.91406,22.91406 -3.64583,-16.53646 -7.8125,-38.41146 -12.5,-65.625 -6.25,-37.109382 -9.95963,-58.317067 -11.26172,-65.478518 -10.42616,-7.50315 -19.18731,-12.867001 -27.41015,-16.357421 z"
         transform="translate(-250.96359,149.09241)"
         sodipodi:nodetypes="cccsccccccccccccccc" />
    </g>



  </g>
</svg>
